<?xml version="1.0" encoding="UTF-8"?>
<svg id="Capa_2" data-name="Capa 2" xmlns="http://www.w3.org/2000/svg" viewBox="0 0 50.54 50.5">
  <g id="Capa_1-2" data-name="Capa 1">
    <g>
      <path fill="#ff3d00" d="m0,6.97C0,4.11,1.74,1.63,4.5.51,7.04-.51,10.08.03,11.85,1.83c.73.74.76,1.03.04,1.79-.92.96-1.88,1.89-2.8,2.85-.35.37-1.03.7-.36,1.34.52.5,1.02.8,1.76.18,2.56-2.13,5.45-3.66,8.68-4.47,7.59-1.9,14.53-.53,20.75,4.28.37.29.68.78,1.28.53.96-.39,1.11-1.02.39-1.76-.97-1-1.97-1.97-2.93-2.98-.74-.77-.7-1.24.12-1.94,2.35-2,6.78-2.48,9.73.48,2.53,2.54,2.75,6.61.43,9.37-.8.96-1.35,1-2.24.15-.83-.79-1.65-1.59-2.44-2.42-.48-.51-.88-.43-1.34,0-.44.43-.6.82-.11,1.34,2.34,2.54,4.16,5.4,5.06,8.76,2.2,8.21.79,15.68-4.77,22.25-1.41,1.67-3.07,3.04-4.91,4.21-.84.54-.84.7-.15,1.38.55.55,1.12,1.07,1.64,1.65.35.39.74.87.24,1.38-.48.49-1.05.33-1.5-.08-.75-.69-1.5-1.39-2.19-2.14-.47-.5-.9-.62-1.55-.32-4.48,2.09-9.18,2.35-13.98,1.58-1.66-.27-3.22-.89-4.75-1.55-.71-.31-1.21-.19-1.7.4-.52.61-1.13,1.15-1.71,1.7-.22.21-.47.41-.75.54-.43.2-.86.17-1.16-.24-.28-.39-.18-.77.13-1.09.6-.62,1.21-1.25,1.85-1.83.56-.51.65-.81-.11-1.3-5.91-3.83-9.5-9.25-10.55-16.21-1.08-7.14.85-13.49,5.66-18.91.46-.52.7-.9.08-1.46-.6-.54-1.03-.46-1.55.12-.76.85-1.6,1.64-2.42,2.44-.66.64-1.21.63-1.84-.04C.58,10.44.04,8.8,0,6.97Zm3.72,19.09c-.41,12.04,9.86,21.47,20.46,21.85,13.79.49,22.2-10.59,22.69-20.49.64-12.86-9.52-22.85-21.51-22.93-11.58-.08-21.91,9.63-21.64,21.57ZM7.35,1.88c-3.48-.14-6.38,2.99-5.07,7.12.16.5.4,1.13,1.08.48,2.1-2.01,4.17-4.05,6.26-6.06.51-.49.41-.83-.2-1.11-.69-.32-1.39-.52-2.07-.44Zm41.15,5.09c.15-1.14-.25-2.21-1.02-3.17-1.49-1.85-4.62-2.57-6.37-1.47-.5.31-.66.55-.14,1.04.86.8,1.62,1.7,2.45,2.52,1.21,1.19,2.45,2.36,3.7,3.51.58.53.87.43,1.12-.31.22-.65.28-1.33.26-2.11Z"/>
      <path fill="#ff3d00" d="m25.31,46.28c-11.2-.11-20.12-9.31-20.1-20.05.02-11.52,9.1-20.02,20.18-20.05,11.31-.03,20.14,9.39,19.99,20.35-.14,10.49-8.82,19.65-20.08,19.75Zm1.92-2.08c1.86-.11,3.46-.58,5.04-1.13.85-.3,1.37-.56.9-1.62-.34-.76.14-1.17.97-.99.3.07.49.26.67.47.33.37.67.39,1.06.1,1.62-1.22,3.02-2.65,4.2-4.29.28-.39.27-.74-.09-1.07-.37-.33-.83-.65-.49-1.24.34-.58.87-.51,1.39-.28.49.21.74.04.92-.43.69-1.76,1.24-3.56,1.45-5.45.07-.61.06-1.09-.73-1.22-.42-.07-.87-.29-.87-.82,0-.51.37-.78.83-.86.74-.12.86-.59.77-1.21-.23-1.56-.61-3.09-1.11-4.59-.31-.94-.7-1.54-1.81-1.34-.41.08-.82-.06-.97-.53-.15-.44.12-.73.46-.9.6-.31.48-.68.17-1.12-1.12-1.61-2.43-3.04-4.02-4.21-.51-.38-.89-.47-1.31.12-.27.37-.65.73-1.18.37-.45-.31-.56-.76-.31-1.22.42-.77,0-1.05-.65-1.28-1.82-.64-3.71-.97-5.59-1.34-.5-.1-.68.11-.71.57-.03.58-.25,1.06-.92,1.05-.64,0-.95-.43-.98-1.02-.03-.57-.3-.8-.83-.68-1.9.42-3.8.85-5.64,1.51-.5.18-.78.49-.51,1.06.25.54.21,1.04-.33,1.38-.53.34-.89-.04-1.19-.39-.41-.48-.8-.47-1.28-.12-1.61,1.19-2.95,2.63-4.06,4.3-.21.32-.29.61.09.87.39.27.79.57.56,1.13-.23.54-.76.43-1.22.44-.45.01-.94-.1-1.18.48-.75,1.78-1.3,3.6-1.46,5.54-.05.62.1,1.02.77,1.13.48.08.81.38.82.87.01.49-.41.67-.81.75-.7.15-.84.61-.78,1.24.16,1.74.67,3.39,1.21,5.04.25.76.63,1.11,1.43.81.45-.17.86-.16,1.13.31.25.46.08.85-.29,1.15-.6.48-.54.96-.11,1.51,1.05,1.35,2.25,2.54,3.58,3.62.58.47,1.1.79,1.73.01.32-.4.86-.36,1.27-.06.4.29.33.72.07,1.08-.45.62-.1.88.43,1.09,1.67.68,3.38,1.19,5.18,1.41.79.09,1.42.12,1.55-.9.05-.4.39-.61.82-.62.44-.01.73.2.79.62.13.8.62,1,1.16.89Z"/>
      <path fill="#ff3d00"   d="m26.24,18.13c0,1.21.03,2.41,0,3.62-.02.66.16,1.14.81,1.4.64.25,1.07.73,1.33,1.35.23.58.66.75,1.25.74,1.42-.02,2.84,0,4.27,0,.37,0,.74.04,1.1.11.54.1.81.46.76.99-.05.52-.43.72-.9.77-.24.03-.49.03-.74.03-1.27,0-2.54.03-3.8,0-.92-.02-1.63.02-2.18,1.06-.67,1.28-2.34,1.7-3.85,1.32-1.34-.33-2.3-1.53-2.53-3.12-.18-1.25.47-2.54,1.75-3.22.66-.35.83-.78.82-1.47-.04-1.89-.02-3.77-.02-5.66,0-.49,0-.99.01-1.48.02-1.11.34-1.61,1.04-1.53.97.11.84.91.88,1.57.03.4,0,.8.01,1.21,0,.77,0,1.55,0,2.32h0Zm-2.61,8.14c0,.95.58,1.52,1.58,1.54.93.01,1.68-.64,1.7-1.47.02-.96-.75-1.77-1.66-1.76-.89.01-1.61.77-1.62,1.69Z"/>
    </g>
  </g>
</svg>