<?xml version="1.0" encoding="UTF-8"?>
<svg id="Capa_2" data-name="Capa 2" xmlns="http://www.w3.org/2000/svg" viewBox="0 0 50.7 50.63">
  <g id="Capa_1-2" data-name="Capa 1">
    <g>
      <path fill="#ff3d00" d="m9.09,17.08c-.21-3.14.49-6.12,2.05-8.88C13.77,3.54,17.82.9,23.07.17c5.71-.79,10.5,1.16,14.33,5.37,2.34,2.57,3.48,5.72,3.9,9.16.64,5.22-.82,9.77-3.91,14-3.89,5.32-7.52,10.82-11.27,16.25-.91,1.32-.97,1.31-1.86.02-3.93-5.67-7.82-11.37-11.82-16.99-2.33-3.27-3.61-6.81-3.35-10.89ZM25.21,1.89c-.89.05-1.79-.03-2.68.15-5.99,1.21-10.37,5.75-11.38,11.77-.8,4.79-.11,9.2,2.89,13.18,1.9,2.52,3.61,5.17,5.4,7.77,1.67,2.42,3.33,4.84,4.99,7.27.57.83.86.83,1.42.03.95-1.37,1.9-2.75,2.85-4.12,2.35-3.38,4.57-6.85,7.09-10.1,3.52-4.54,4.52-9.52,3.31-15.04-1.4-6.37-7.59-11.25-13.89-10.92Z"/>
      <path fill="#ff3d00" d="m25.4,48.61c5.64.35,11.16-.24,16.62-1.46,1.97-.44,3.91-.97,5.61-2.12,1.59-1.08,1.58-2.05.03-3.15-2.49-1.77-5.36-2.49-8.27-3.15-1.12-.25-2.23-.49-3.37-.62-.33-.04-.67-.15-.97-.29-.41-.19-.56-.57-.47-1.01.09-.43.41-.59.82-.61.18,0,.37-.02.56,0,3.96.6,7.87,1.34,11.45,3.27.85.46,1.63,1.01,2.29,1.72,1.44,1.56,1.34,3.23-.31,4.58-1.84,1.5-4.05,2.24-6.26,2.94-3.57,1.12-7.28,1.38-10.98,1.69-3.96.34-7.92.24-11.87.14-5.2-.13-10.36-.77-15.25-2.75-1.53-.62-3.03-1.28-4.14-2.56-1.16-1.32-1.15-2.56.02-3.89,1.16-1.33,2.7-2.04,4.27-2.71,3.04-1.31,6.29-1.81,9.52-2.39.61-.11,1.23-.07,1.35.73.12.82-.47,1-1.08,1.08-2.95.41-5.83,1.13-8.63,2.14-1.2.43-2.36.96-3.38,1.71-1.38,1.02-1.33,2.03.08,3,1.72,1.19,3.67,1.78,5.67,2.22,5.52,1.24,11.1,1.82,16.73,1.48Z"/>
      <path fill="#ff3d00" d="m25.37,21.98c-3.33,0-6.07-2.7-6.07-5.99,0-3.18,2.86-5.98,6.12-5.99,3.15,0,6.02,2.87,6,6.03-.01,3.17-2.83,5.95-6.04,5.95Zm4.04-5.84c.1-2.26-1.62-4.11-3.9-4.2-2.26-.09-4.17,1.63-4.28,3.85-.11,2.36,1.68,4.33,4.03,4.44,2.19.1,4.04-1.73,4.14-4.09Z"/>
    </g>
  </g>
</svg>