<?xml version="1.0" encoding="UTF-8"?>
<svg id="Capa_2" data-name="Capa 2" xmlns="http://www.w3.org/2000/svg" viewBox="0 0 35.79 47.66">
  <g id="Capa_1-2" data-name="Capa 1">
    <path d="m2.73,47.66c.08-.05.15-.09.28-.17-.68-.2-1.22-.54-1.7-.98-.94-.87-1.22-2.01-1.3-3.23-.01-.17,0-.34,0-.51,0-12.76,0-25.51,0-38.27C0,2.64.86,1.26,2.53.44,3.28.07,4.11,0,4.94,0c6.25,0,12.49,0,18.74,0,3.83,0,7.66,0,11.49,0,.62,0,.63,0,.63.61,0,15.53,0,31.06,0,46.59,0,.15-.02.31-.03.46H2.73Zm2.92-20.28c0,.9,0,1.8,0,2.7,0,5.13,0,10.26,0,15.39,0,.44.11.6.57.58.77-.03,1.55,0,2.32,0,8.23,0,16.46,0,24.69,0,.91,0,.91,0,.91-.89,0-9.27,0-18.54,0-27.81,0-2.67-.01-5.33,0-8,0-.39-.1-.55-.52-.55-4.65.01-9.3.01-13.95,0-.4,0-.58.13-.55.54,0,.11,0,.22,0,.33,0,6.17,0,12.34,0,18.51,0,.3-.02.59-.11.87-.29.92-1.27,1.16-1.94.49-.29-.29-.49-.64-.7-.98-.87-1.45-1.75-2.89-2.61-4.34-.17-.28-.28-.33-.46,0-.38.69-.79,1.37-1.19,2.05-.62,1.05-1.25,2.11-1.89,3.15-.26.43-.68.65-1.18.58-.54-.07-.87-.43-1.03-.95-.09-.3-.08-.61-.08-.92,0-6.11,0-12.22,0-18.32,0-.17-.01-.34,0-.51.02-.33-.11-.48-.46-.47-.4.02-.81,0-1.21,0q-.6,0-.6.62c0,5.98,0,11.97,0,17.95Zm3.98-.43s.07,0,.1,0c1.17-1.92,2.34-3.83,3.51-5.75.08-.13.08-.34.26-.35.21,0,.24.21.33.35,1.08,1.74,2.15,3.48,3.15,5.27.12.21.28.41.42.61.03-.02.06-.03.08-.05,0-.19,0-.37,0-.56,0-5.5.03-11.01-.02-16.51-.01-1.39.06-2.72.88-3.9.22-.31.11-.42-.26-.42-2.26,0-4.53,0-6.79,0-.31,0-.48.11-.62.38-.27.54-.56,1.07-.85,1.6-.23.41-.28.85-.26,1.3.02.39.05.77.05,1.16,0,5.33,0,10.66.01,16,0,.29,0,.58,0,.87ZM26.85,7.1s0,0,0,0c2.25,0,4.5,0,6.74,0,.24,0,.54.05.53-.34,0-.35-.28-.36-.53-.36-.73,0-1.46,0-2.19,0-.78,0-1.17-.27-1.17-.81,0-.53.4-.82,1.17-.83.73,0,1.46,0,2.19,0,.23,0,.54.08.53-.33,0-.4-.3-.36-.56-.36-.95,0-1.89,0-2.84,0-.25,0-.5-.02-.73-.11-.35-.13-.59-.37-.59-.75,0-.41.26-.65.64-.75.29-.08.58-.1.88-.09.93,0,1.86,0,2.79,0,.15,0,.33.01.39-.18.05-.16.01-.32-.1-.44-.12-.13-.29-.08-.44-.08-9.41,0-18.82-.02-28.23-.02-.43,0-.86.02-1.3.09-1.47.23-2.36,1.29-2.34,2.81.02,1.33,1.07,2.39,2.47,2.57,1.27.17,2.54-.04,3.81,0,.27,0,.37-.18.47-.38.38-.76.78-1.52,1.13-2.29.17-.37.41-.51.79-.49.4.02.81,0,1.21,0,2.98,0,5.95,0,8.93,0,.67,0,.71.06.43.64-.33.67-.66,1.33-1,2-.26.52-.26.53.31.53,2.2,0,4.4,0,6.6,0ZM3.93,27.39h0c0-4.23,0-8.46,0-12.69,0-1.8.02-3.59.04-5.39,0-.37-.1-.58-.51-.6-.37-.02-.72-.17-1.07-.31q-.76-.32-.75.54c0,11.1,0,22.19,0,33.29,0,.45-.02.9,0,1.35.06,1.05.48,1.89,1.52,2.29.64.25.76.16.76-.52,0-5.98,0-11.96,0-17.95Z"/>
  </g>
</svg>