<?xml version="1.0" encoding="UTF-8"?>
<svg id="Capa_2" data-name="Capa 2" xmlns="http://www.w3.org/2000/svg" viewBox="0 0 47.67 47.62">
  <g id="Capa_1-2" data-name="Capa 1">
    <g>
      <path d="m0,20.27c.17.22.04.52.18.74.76-6.07,3.44-11.14,8.03-15.14C12.82,1.85,18.24-.15,24.35,0c12.1.32,21.56,9.29,23.1,20.8.87,6.5-.85,12.38-4.82,17.54-3.98,5.18-9.31,8.14-15.84,9.11.17.08.27.12.37.17h-6.98c.25-.18.57-.06.9-.17-5.53-.67-10.23-2.95-14.1-6.85C3.12,36.7.76,32.03.23,26.51c-.13.29-.05.65-.23.93v-7.16Zm23.85,25.68c11.47.23,22.16-9.27,22.16-22.17,0-12.72-10.6-22.29-22.44-22.17C11.59,1.74,1.66,11.84,1.62,23.76c-.04,11.92,9.96,22.44,22.23,22.19Z"/>
      <path d="m24.64,16.66c0,1.21.01,2.42,0,3.62,0,.34.21.45.45.56.95.45,1.59,1.18,1.82,2.21.34,1.51-.59,3.1-2.06,3.63-1.76.63-3.39-.47-3.89-1.72-.13-.32-.31-.4-.63-.39-1.55.02-3.1,0-4.65.01-.27,0-.53-.04-.78-.12-.35-.12-.57-.4-.58-.77,0-.37.25-.59.58-.71.29-.11.6-.12.92-.12,1.47,0,2.94,0,4.41,0,.36,0,.55-.1.7-.44.32-.73.84-1.31,1.6-1.6.35-.14.44-.35.44-.71-.01-2.25,0-4.49,0-6.74,0-.31.03-.62.08-.92.07-.42.36-.6.75-.62.41-.01.68.2.77.6.06.27.08.55.09.83,0,1.13,0,2.26,0,3.39,0,0-.02,0-.03,0Zm-.86,8.55c.91.02,1.57-.58,1.59-1.45.02-.87-.67-1.58-1.53-1.59-.85,0-1.55.67-1.57,1.51-.02.87.62,1.51,1.51,1.53Z"/>
      <path d="m6.7,22.86c.73,0,1.21.34,1.23.83.02.5-.44.84-1.16.88-.2.01-.4-.03-.59-.09-.38-.11-.6-.37-.62-.77-.02-.41.24-.61.58-.75.19-.08.38-.12.56-.1Z"/>
      <path d="m22.97,6.74c0-.75.19-1.1.62-1.23.3-.09.56-.02.77.19.4.39.41,1.45.01,1.86-.43.46-1.1.31-1.3-.29-.07-.2-.09-.42-.11-.53Z"/>
      <path d="m40.94,22.86c.25,0,.49.07.71.18.25.13.42.31.42.61,0,.32-.11.58-.4.73-.5.26-1.02.24-1.52,0-.3-.15-.45-.43-.43-.76.02-.31.22-.5.49-.62.23-.1.47-.15.72-.14Z"/>
      <path d="m22.96,40.73c.03-.17.05-.34.09-.5.11-.36.34-.6.72-.62.39-.02.64.22.77.56.16.42.15.85-.03,1.27-.15.36-.43.53-.8.5-.37-.02-.58-.27-.66-.62-.05-.19-.06-.4-.1-.6Z"/>
      <path d="m11.45,10.59c.52,0,1.32.77,1.34,1.3.02.53-.45.92-.96.75-.56-.19-.93-.6-1.1-1.16-.12-.4.29-.88.72-.89Z"/>
      <path d="m36.92,11.36c0,.6-.87,1.38-1.46,1.32-.47-.05-.77-.58-.56-1.05.21-.48.58-.84,1.1-.98.44-.12.92.27.92.72Z"/>
      <path d="m12.78,35.55c-.02.55-.89,1.32-1.43,1.25-.47-.06-.78-.61-.57-1.06.2-.44.53-.76.99-.93.51-.19,1.03.2,1.01.74Z"/>
      <path d="m36.95,36.03c0,.54-.52.91-1.03.72-.49-.18-.82-.55-1.01-1.02-.16-.4.13-.87.55-.96.57-.11,1.5.67,1.49,1.26Z"/>
    </g>
  </g>
</svg>