<?xml version="1.0" encoding="UTF-8"?>
<svg id="Capa_2" data-name="Capa 2" xmlns="http://www.w3.org/2000/svg" viewBox="0 0 31.87 47.66" fill="#ff3d00">
  <g id="Capa_1-2" data-name="Capa 1">
    <g>
      <path d="m20.96,0c.86.9.49,1.01,0,1.77-.22.34-.48.65-.72.97-.06.08-.18.16-.14.28.05.15.2.12.32.12.6,0,1.21,0,1.81,0,2.26,0,4.53,0,6.79,0,.81,0,1.56.2,2.15.83.52.55.63,1.22.69,1.93.02.28,0,.56,0,.84,0,12.43,0,24.86,0,37.29,0,.43-.01.87-.07,1.3-.19,1.4-1.09,2.26-2.5,2.33-.19,0-.37,0-.56,0-8.48,0-16.96,0-25.44,0-.29,0-.59,0-.88-.03-1.46-.18-2.32-1.11-2.4-2.61-.01-.2,0-.4,0-.6,0-12.59,0-25.17,0-37.76,0-.31-.01-.62.02-.93.17-1.7,1.13-2.59,2.85-2.59,2.85-.01,5.7,0,8.56,0,.12,0,.25,0,.37,0,.34.02.37-.14.24-.4-.19-.39-.38-.78-.57-1.17-.29-.57-.39-1.11.19-1.58h.65c.67.84,1.06,1.84,1.54,2.79.14.28.35.35.64.35.99-.01,1.98-.02,2.97,0,.31,0,.51-.12.71-.35.76-.91,1.4-1.93,2.24-2.79h.56ZM1.7,25.4h0c0,.34,0,.68,0,1.02,0,6.12-.01,12.25-.02,18.37,0,.99.21,1.21,1.19,1.23.48.01.96,0,1.44,0,8.09,0,16.19,0,24.28,0,1.38,0,1.55-.18,1.55-1.55,0-12.64,0-25.27,0-37.91,0-1.7-.03-1.72-1.7-1.72-4,0-8,0-12,0-.39,0-.77-.04-1.16-.05-.32-.01-.35.13-.25.41.14.36.41.36.71.37,2.18.08,3.65,1.78,3.27,3.77-.23,1.21-1.23,2.22-2.44,2.47-1.28.26-2.51-.25-3.28-1.36-.66-.96-.75-2.43-.02-3.32.53-.65.48-1.15.07-1.75-.03-.04-.05-.08-.06-.12-.13-.41-.43-.53-.84-.48-.52.07-1.05.06-1.58.06-2.6,0-5.21,0-7.81,0-1.27,0-1.36.1-1.36,1.39,0,6.39,0,12.77,0,19.16Zm15.78-16.49c.02-.78-.38-1.38-.98-1.62-.08-.03-.17-.11-.26-.04-.08.07-.04.18,0,.26.11.26.23.51.34.76.21.53.09.95-.32,1.16-.4.2-.76.06-1.07-.45-.14-.22-.26-.46-.39-.69-.04-.08-.08-.19-.19-.17-.11.01-.12.13-.14.21-.19.57-.06,1.07.36,1.49.45.45,1.18.59,1.77.32.57-.27.86-.73.89-1.23Z"/>
      <path d="m15.83,38.92c-5.73,0-10.1-4.73-10.19-10.12-.11-6.45,5.22-10.57,10.4-10.52,4.94.05,10.28,4,10.2,10.5-.07,5.42-4.41,10.14-10.41,10.14Zm-4.74-10.35c0-.28,0-.65,0-1.02.04-2.1.88-3.73,2.76-4.77,2.02-1.12,4.28-.43,5.68,1.22.76.89,1.17,1.92,1.19,3.1.03,1.67.22,3.35-.42,4.96-.11.27.06.33.25.39.78.26,1.56.52,2.33.79.22.08.38.05.5-.18,1.01-1.78,1.45-3.67,1.15-5.72-.72-4.82-5.21-8.34-10.49-7.22-5.79,1.23-8.57,7.8-5.58,12.9.12.2.23.3.48.22.79-.28,1.58-.54,2.38-.8.22-.07.29-.2.2-.42-.44-1.07-.47-2.2-.44-3.43Zm7.99-.08c-.04-.65.07-1.43-.1-2.19-.31-1.35-1.39-2.42-3.11-2.43-1.47-.01-2.73,1.09-2.98,2.52-.19,1.08-.04,2.17-.1,3.25-.07,1.24.36,2.28,1.21,3.15.28.29.22.4-.14.52-1.22.39-2.44.82-3.66,1.23-.45.15-.46.2-.1.53.59.55,1.28.91,1.99,1.28,3.4,1.77,6.98.91,9.6-1.21.47-.38.44-.44-.11-.63-1.17-.4-2.35-.79-3.53-1.18-.3-.1-.5-.2-.18-.53.89-.92,1.32-2.01,1.22-3.29-.02-.29,0-.59,0-1.01Z"/>
      <path d="m13.72,42.91c-.01.42-.4.75-.84.74-.44-.02-.75-.34-.74-.78,0-.47.37-.83.83-.8.41.02.77.42.76.84Z"/>
      <path d="m13.72,15.1c-.01.43-.39.77-.83.76-.45-.02-.79-.37-.77-.81.01-.4.38-.75.8-.75.4,0,.82.42.81.8Z"/>
      <path d="m15.16,42.83c.02-.45.37-.78.82-.77.41.01.74.4.73.86,0,.42-.36.74-.79.72-.45-.01-.77-.36-.75-.81Z"/>
      <path d="m9.86,43.65c-.42-.01-.75-.37-.74-.8.02-.44.36-.77.78-.76.43,0,.77.38.76.83-.01.42-.37.74-.8.73Z"/>
      <path d="m18.99,43.64c-.44,0-.82-.37-.82-.78,0-.42.35-.75.78-.75.42,0,.77.36.78.81,0,.39-.33.72-.74.72Z"/>
      <path d="m19.73,15.08c0,.42-.34.77-.77.76-.41,0-.8-.35-.81-.74,0-.36.41-.78.78-.78.39,0,.79.38.79.77Z"/>
      <path d="m22.73,42.9c0,.39-.34.74-.74.74-.41,0-.77-.35-.78-.76,0-.42.33-.76.76-.77.41,0,.75.35.76.79Z"/>
      <path d="m6.86,43.64c-.38,0-.72-.35-.72-.76,0-.46.29-.77.74-.76.43,0,.76.33.77.77,0,.38-.38.76-.79.76Z"/>
      <path d="m25.73,42.86c0,.41-.3.76-.7.77-.39.02-.79-.35-.81-.74-.02-.41.31-.76.74-.78.42-.02.76.32.77.75Z"/>
      <path d="m9.88,15.84c-.39,0-.75-.4-.75-.8,0-.35.41-.73.77-.73.41,0,.78.41.76.83-.02.38-.39.7-.79.7Z"/>
      <path d="m3.87,42.11c.43,0,.75.34.74.78,0,.41-.33.74-.73.75-.38,0-.78-.39-.78-.77,0-.42.34-.76.77-.76Z"/>
      <path d="m3.87,15.83c-.37,0-.75-.35-.77-.73-.02-.36.4-.79.78-.79.37,0,.77.41.77.79,0,.36-.38.72-.78.73Z"/>
      <path d="m21.99,15.84c-.41,0-.77-.34-.79-.75-.01-.4.36-.77.77-.77.39,0,.76.38.76.78,0,.38-.35.73-.74.74Z"/>
      <path d="m25.01,15.84c-.39,0-.79-.38-.8-.76,0-.35.39-.74.75-.75.39-.01.76.35.78.77.01.37-.35.74-.74.74Z"/>
      <path d="m6.13,15.03c.02-.37.42-.74.78-.72.38.02.78.45.75.81-.02.38-.4.72-.79.71-.4-.01-.76-.41-.74-.8Z"/>
      <path d="m28.02,43.64c-.37,0-.75-.36-.77-.73-.02-.42.31-.78.73-.8.42-.01.77.34.77.76,0,.38-.36.76-.74.77Z"/>
      <path d="m28,14.32c.36,0,.74.37.76.74.02.4-.35.77-.76.77-.4,0-.76-.37-.76-.78,0-.36.38-.73.76-.73Z"/>
      <path d="m15.96,15.84c-.41,0-.79-.35-.79-.75,0-.36.38-.75.74-.76.36-.01.8.41.79.77,0,.39-.35.74-.75.75Z"/>
    </g>
  </g>
</svg>