<?xml version="1.0" encoding="UTF-8"?>
<svg id="Capa_2" data-name="Capa 2" xmlns="http://www.w3.org/2000/svg" viewBox="0 0 47.57 47.61" fill="#ff3d00">
  <g id="Capa_1-2" data-name="Capa 1">
    <g>
      <path d="m16.32,47.61c.48-.22,1.01-.05,1.6-.22-.21-.02-.33-.05-.45-.05-2.68-.09-5.35-.34-7.97-.94-2.58-.59-5.16-1.24-7.43-2.7-.66-.42-1.26-.92-1.67-1.59-.58-.94-.52-1.89.12-2.79.71-1,1.7-1.67,2.75-2.24,2.19-1.18,4.57-1.82,6.98-2.34,1.18-.25,2.37-.45,3.57-.61.15-.02.31-.02.46,0,.4.06.65.32.7.71.04.38-.18.65-.54.78-.66.24-1.37.26-2.05.37-2.95.46-5.83,1.16-8.51,2.54-.64.33-1.22.73-1.73,1.24-.78.79-.72,1.55.17,2.24,1.01.78,2.16,1.28,3.36,1.65,2.54.79,5.13,1.29,7.76,1.67,1.89.27,3.79.36,5.69.48,2.48.15,4.96.14,7.44.07,5.19-.14,10.32-.7,15.3-2.23,1.2-.37,2.35-.88,3.36-1.66.84-.66.9-1.4.18-2.17-.53-.56-1.16-.97-1.84-1.32-2.32-1.2-4.81-1.87-7.38-2.3-.79-.13-1.59-.25-2.38-.38-.2-.03-.4-.07-.59-.13-.49-.16-.78-.59-.68-.97.1-.39.54-.66,1.04-.59,1.1.16,2.21.31,3.3.53,2.34.47,4.64,1.1,6.81,2.14.9.43,1.75.94,2.49,1.61.46.41.84.87,1.11,1.42.07.14.12.29.29.34v.93c-.04.06-.11.12-.12.19-.26,1.07-1.01,1.75-1.88,2.33-1.46.98-3.08,1.59-4.76,2.06-3.52.99-7.11,1.53-10.76,1.69-.07,0-.16-.03-.18.09.31.11.66-.03.95.15h-14.51Z"/>
      <path d="m8.38,15.89c.18-4.19,1.36-8.03,4.27-11.16,1.73-1.87,3.86-3.17,6.3-3.97C20.43.28,21.94.06,23.47,0c1.03-.04,2.08.06,3.09.28,2.6.57,4.95,1.66,6.97,3.44,2.9,2.55,4.45,5.8,5.07,9.56.38,2.3.26,4.57-.23,6.83-.52,2.42-1.7,4.55-3.08,6.56-3.75,5.44-7.51,10.86-11.27,16.29-.04.06-.09.12-.13.19-.2.33-.35.3-.56-.02-.78-1.19-1.57-2.38-2.38-3.55-3-4.31-6.03-8.61-9-12.94-1.43-2.08-2.65-4.27-3.12-6.79-.25-1.31-.46-2.62-.44-3.97ZM23.62,1.66c-2.33-.02-4.51.52-6.55,1.64-2,1.1-3.63,2.6-4.82,4.54-1.07,1.74-1.73,3.65-2.02,5.7-.36,2.48-.24,4.91.48,7.31.52,1.75,1.46,3.28,2.48,4.76,2.91,4.22,5.84,8.44,8.76,12.66.46.66.93,1.32,1.38,1.99.22.32.38.31.57,0,.04-.07.09-.13.14-.19,3.38-4.88,6.77-9.76,10.14-14.64.74-1.07,1.45-2.16,1.93-3.38,1-2.52,1.27-5.13,1.01-7.8-.3-3.07-1.37-5.86-3.46-8.16-2.68-2.94-6.05-4.39-10.03-4.4Z"/>
      <path d="m18.23,15.04c0-3,2.51-5.57,5.49-5.54,2.96.03,5.53,2.25,5.62,5.59.08,2.95-2.61,5.54-5.62,5.55-2.97,0-5.49-2.56-5.48-5.6Zm5.48,3.92c2.2.02,3.9-1.65,3.93-3.85.02-2.19-1.67-3.93-3.84-3.94-2.21-.01-3.93,1.69-3.93,3.9,0,2.15,1.7,3.87,3.85,3.88Z"/>
    </g>
  </g>
</svg>