<?xml version="1.0" encoding="UTF-8"?>
<svg id="Capa_2" data-name="Capa 2" xmlns="http://www.w3.org/2000/svg" viewBox="0 0 48.01 47.71" fill="#ff3d00">
  <g id="Capa_1-2" data-name="Capa 1">
    <g>
      <path d="m36.85,47.7c-12.15,0-24.3,0-36.45,0-.35,0-.4-.08-.4-.41C0,31.56,0,15.82,0,.07c.2-.01.4-.03.61-.03,11.83,0,23.65,0,35.48,0q.76,0,.76.74c0,14.43,0,28.87,0,43.3,0,.99.03,1.98-.05,2.97-.02.21.03.43.04.65ZM8.08,23.84c0,7.22,0,14.45,0,21.67,0,.42.14.57.57.57,8.59,0,17.19,0,25.78,0,.72,0,.73,0,.73-.74,0-14.32,0-28.65,0-42.97,0-.67,0-.68-.68-.68-3.5,0-7-.01-10.5-.01-5.11,0-10.22,0-15.33,0-.35,0-.57.01-.57.48.02,7.22.01,14.45.01,21.67Zm-1.73.09c0-7.21,0-14.41,0-21.62,0-.61,0-.63-.63-.63-1.09,0-2.19,0-3.28,0-.81,0-.81,0-.81.79,0,4.93,0,9.86,0,14.79,0,9.39,0,18.78,0,28.18,0,.64.02.65.66.65,1.11,0,2.22,0,3.33,0,.73,0,.73,0,.73-.72,0-7.14,0-14.29,0-21.43Z"/>
      <path d="m43.51,47.7c.05-.07.1-.15.03-.21-.43-.4-.37-.94-.37-1.44,0-.36-.09-.66-.26-.97-.86-1.5-1.7-3-2.56-4.49-.27-.46-.4-.93-.4-1.46,0-2.37-.01-4.74-.01-7.11,0-8.71,0-17.42,0-26.13,0-1.08,0-2.17.07-3.25.08-1.49.82-2.39,2.32-2.56,1.17-.13,2.37-.12,3.55.02.8.1,1.39.51,1.8,1.19.08.13.12.3.34.26v38.7c-.24.07-.32.28-.43.46-.78,1.37-1.47,2.79-2.35,4.1-.24.36-.44.74-.39,1.21.07.62-.06,1.19-.49,1.67h-.84Zm-1.84-23.02c0,4.54,0,9.08,0,13.62,0,.61.02.62.64.62,1.05,0,2.09,0,3.14,0,.95,0,.93.15.93-.94,0-5.25,0-10.5,0-15.76,0-3.7,0-7.41,0-11.11,0-.69,0-.69-.71-.69-1.11,0-2.22,0-3.33,0q-.67,0-.67.68c0,4.52,0,9.05,0,13.57Zm2.35-19.07c.64,0,1.28,0,1.92,0,.25,0,.44-.07.44-.36,0-.93,0-1.86-.02-2.79-.01-.41-.25-.73-.69-.75-1.09-.06-2.19-.11-3.27.03-.52.07-.72.34-.72.86-.01.85,0,1.7,0,2.56,0,.35.15.46.48.45.62-.01,1.25,0,1.87,0Zm-.05,1.65c-.42,0-.84,0-1.26,0-1.14.01-1.04-.19-1.05,1.09,0,.29.12.43.42.43,1.2,0,2.4,0,3.6-.02.64-.01.71-.12.68-.76,0-.09-.03-.18-.03-.28,0-.36-.19-.47-.54-.46-.61.02-1.22,0-1.82,0Zm.09,33.37s0,0,0,.01c-.45,0-.91,0-1.36,0-.24,0-.37.07-.22.33.44.77.88,1.54,1.31,2.3.14.24.28.28.43.02.44-.77.88-1.53,1.33-2.3.15-.27.05-.37-.23-.37-.42,0-.84,0-1.26,0Z"/>
      <path d="m21.61,19.15c-2.97,0-5.93,0-8.9,0-.73,0-.74-.01-.74-.72,0-3.27,0-6.54,0-9.81,0-.64.02-.67.65-.67,6.03,0,12.06,0,18.09-.01.4,0,.55.14.55.54,0,3.38-.01,6.76,0,10.13,0,.45-.21.54-.61.54-3.01,0-6.03,0-9.04,0h0Zm0-1.63c2.48,0,4.97,0,7.45,0,.4,0,.55-.12.55-.53-.01-2.25-.02-4.5,0-6.74,0-.45-.16-.59-.6-.59-4.91.01-9.81,0-14.72,0-.6,0-.65.05-.65.63,0,2.19,0,4.37,0,6.56,0,.63.03.66.66.66,2.44,0,4.87,0,7.31,0Z"/>
      <path d="m21.67,14.29c1.67,0,3.34.01,5.01,0,.42,0,.59.12.61.54.04,1.19.06,1.19-1.14,1.19-3.14,0-6.28,0-9.41,0-.78,0-.79-.02-.79-.77,0-.11,0-.22,0-.33-.03-.45.15-.63.63-.63,1.7.02,3.4,0,5.1,0h0Z"/>
      <path d="m21.63,12.83c-1.66,0-3.31,0-4.97,0-.67,0-.72-.06-.73-.71,0-.99,0-1,1-1,3.22,0,6.43,0,9.65,0,.67,0,.67,0,.66.69q0,1.02-1.07,1.02c-1.51,0-3.03,0-4.54,0h0Z"/>
    </g>
  </g>
</svg>