<?xml version="1.0" encoding="UTF-8"?>
<svg id="Capa_2" data-name="Capa 2" xmlns="http://www.w3.org/2000/svg" viewBox="0 0 48 43.73" fill="#ff3d00">
  <g id="Capa_1-2" data-name="Capa 1">
    <path d="m0,38.87c.05.13.1.26.15.39.15-.06.1-.21.13-.31.4-1.32,1.11-2.43,2.24-3.24,1.83-1.3,3.72-2.51,5.66-3.64.95-.55,1.36-1.27,1.39-2.38.03-1.1-.2-2-.97-2.82-.75-.81-1.27-1.8-1.63-2.86-.18-.53-.42-1.03-.79-1.47-.21-.25-.36-.54-.43-.87-.27-1.38-.21-2.77-.07-4.16.02-.2.09-.41.23-.55.41-.42.43-.92.43-1.47.01-1.22-.11-2.45.18-3.66.84-3.48,3.56-5.79,7.13-6.14,2.03-.2,3.98-.06,5.87.74.37.16.53.08.61-.32.63-3.28,2.85-4.95,5.94-5.71,2.49-.61,4.97-.54,7.45.09,3.09.78,5.17,3,5.64,6.12.06.37.04.74.04,1.11,0,1.04,0,2.08,0,3.12-.01.78-.02,1.53.49,2.21.3.4.31.94.33,1.44.03,1.13.09,2.26-.07,3.39-.13.94-.62,1.68-1.4,2.22-.28.2-.48.42-.61.73-.66,1.63-1.5,3.17-2.53,4.6-.12.16-.15.33-.15.52,0,.78,0,1.55.01,2.33,0,.8.32,1.44,1.01,1.88.35.23.73.43,1.11.6,2.22,1,4.39,2.1,6.53,3.26,1.76.96,3.08,2.31,3.7,4.25.1.31.19.62.22.98.06-.12.11-.21.15-.31v4.74c-.39,0-.78.02-1.17.02-15.11,0-30.22,0-45.33,0-.5,0-1-.02-1.5-.02C0,42.09,0,40.48,0,38.87Zm29.59,3.15h0c5.06,0,10.12,0,15.19,0,.41,0,.81,0,1.22.01.21,0,.38-.05.38-.3.05-1.62-.09-3.19-1.1-4.56-.63-.85-1.48-1.42-2.4-1.89-2.3-1.16-4.61-2.29-6.91-3.43-1.38-.69-2.23-1.75-2.36-3.33-.08-1.01-.05-2.01-.05-3.02,0-.22.1-.42.24-.6,1.3-1.62,2.25-3.42,2.93-5.37.09-.27.24-.44.51-.56.79-.34,1.14-.94,1.12-1.8-.03-.93-.01-1.86,0-2.79,0-.4-.08-.77-.37-1.07-.32-.32-.4-.71-.4-1.15,0-1.64.03-3.29-.01-4.93-.05-2.05-.98-3.65-2.84-4.53-3.04-1.44-6.22-1.38-9.36-.39-2.33.74-3.81,2.65-3.72,5.36.05,1.47.02,2.95.02,4.42,0,.4.01.82-.33,1.12-.38.34-.49.77-.49,1.26,0,.95,0,1.89,0,2.84,0,.58.21,1.06.66,1.43.27.22.4.49.48.82.45,1.88,1.33,3.57,2.48,5.12.27.36.41.71.4,1.14-.01.73.01,1.46,0,2.19-.03,1.52-.62,2.73-1.97,3.53-.62.37-1.24.72-1.87,1.06-1.79.98-3.61,1.91-5.38,2.92-1.36.77-2.26,1.94-2.62,3.47-.2.82-.13,1.66-.17,2.5-.02.45.17.54.58.54,5.39-.01,10.78,0,16.17,0Zm-23.21,0h0c1.42,0,2.84-.02,4.26,0,.36,0,.52-.11.5-.48-.03-.53.03-1.05.07-1.58.22-2.43,1.33-4.32,3.37-5.68,1.33-.88,2.78-1.55,4.17-2.31.37-.2.66-.54,1.04-.68.84-.3,1.62-.72,2.36-1.21.65-.44.99-1.06.99-1.85,0-.76,0-1.52,0-2.28,0-.21-.08-.39-.2-.56-1.03-1.41-1.8-2.94-2.29-4.6-.18-.61-.44-1.15-.89-1.6-.31-.32-.5-.72-.56-1.16-.15-1.17-.12-2.35-.05-3.53.03-.48.04-1,.32-1.39.49-.67.49-1.41.47-2.17-.01-.57-.06-1.15.01-1.72.09-.64-.18-.99-.74-1.21-.09-.03-.17-.08-.26-.11-2.06-.77-4.18-.87-6.3-.38-2.99.68-4.78,3.34-4.6,5.93.07.97,0,1.95.02,2.93,0,.39-.1.72-.4,1-.25.22-.43.49-.43.85,0,.9-.01,1.8,0,2.7,0,.37.14.71.43.94.32.26.48.6.6.97.45,1.46,1.15,2.79,2.23,3.88.55.55.78,1.14.69,1.91-.05.44-.03.9,0,1.35.08,1.48-.56,2.56-1.82,3.32-1.5.92-2.97,1.88-4.5,2.76-.72.41-1.41.85-1.99,1.46-1.07,1.12-1.29,2.49-1.27,3.96,0,.42.12.57.56.56,1.41-.02,2.81,0,4.22,0Z"/>
  </g>
</svg>